<?xml version="1.0" standalone="no"?><!DOCTYPE svg PUBLIC "-//W3C//DTD SVG 1.1//EN" "http://www.w3.org/Graphics/SVG/1.1/DTD/svg11.dtd"><svg t="1660811807140" class="icon" viewBox="0 0 1024 1024" version="1.1" xmlns="http://www.w3.org/2000/svg" p-id="2716" width="16" height="16" xmlns:xlink="http://www.w3.org/1999/xlink"><defs><style type="text/css"></style></defs><path d="M753.265 105.112c12.57 12.546 12.696 32.81 0.377 45.512l-0.377 0.383L680.133 224H816c70.692 0 128 57.308 128 128v448c0 70.692-57.308 128-128 128H208c-70.692 0-128-57.308-128-128V352c0-70.692 57.308-128 128-128h136.079l-73.131-72.993c-12.698-12.674-12.698-33.222 0-45.895 12.697-12.674 33.284-12.674 45.982 0L436.044 224h152.124l119.115-118.888c12.697-12.674 33.284-12.674 45.982 0zM816 288H208c-34.993 0-63.426 28.084-63.991 62.942L144 352v448c0 34.993 28.084 63.426 62.942 63.991L208 864h608c34.993 0 63.426-28.084 63.991-62.942L880 800V352c0-35.346-28.654-64-64-64zM439 410c11.806 0 23.435 3.306 34 10l173 107c29.687 18.156 39.009 57.616 20 88-4.87 8.358-12.176 15.61-21 21L472 741c-30.18 18.052-69.491 8.359-88-22-5.808-9.903-9-21.366-9-33V474c0-35.327 28.628-64 64-64z m1.196 74.146a8 8 0 0 0-1.196 4.208v183.432a8 8 0 0 0 12.15 6.84l149.688-90.851a8 8 0 0 0 0.057-13.643L451.208 481.55a8 8 0 0 0-11.012 2.595z" p-id="2717" fill="#ffffff"></path></svg>