<?xml version="1.0" standalone="no"?><!DOCTYPE svg PUBLIC "-//W3C//DTD SVG 1.1//EN" "http://www.w3.org/Graphics/SVG/1.1/DTD/svg11.dtd"><svg t="1659616765442" class="icon" viewBox="0 0 1024 1024" version="1.1" xmlns="http://www.w3.org/2000/svg" p-id="7187" xmlns:xlink="http://www.w3.org/1999/xlink" width="32" height="32"><defs><style type="text/css"></style></defs><path d="M512 42.666667C252.793333 42.666667 42.666667 252.793333 42.666667 512s210.126667 469.333333 469.333333 469.333333 469.333333-210.126667 469.333333-469.333333S771.206667 42.666667 512 42.666667z m0 896c-235.64 0-426.666667-191.026667-426.666667-426.666667s191.026667-426.666667 426.666667-426.666667 426.666667 191.026667 426.666667 426.666667-191.026667 426.666667-426.666667 426.666667z m106.666667-213.333334a21.333333 21.333333 0 0 1-21.333334-21.333333V320a21.333333 21.333333 0 0 1 42.666667 0v384a21.333333 21.333333 0 0 1-21.333333 21.333333z m-213.333334 0a21.333333 21.333333 0 0 1-21.333333-21.333333V320a21.333333 21.333333 0 0 1 42.666667 0v384a21.333333 21.333333 0 0 1-21.333334 21.333333z" fill="#ffffff" p-id="7188"></path></svg>