<?xml version="1.0" standalone="no"?><!DOCTYPE svg PUBLIC "-//W3C//DTD SVG 1.1//EN" "http://www.w3.org/Graphics/SVG/1.1/DTD/svg11.dtd"><svg t="1659453610899" class="icon" viewBox="0 0 1024 1024" version="1.1" xmlns="http://www.w3.org/2000/svg" p-id="9831" xmlns:xlink="http://www.w3.org/1999/xlink" width="32" height="32"><defs><style type="text/css"></style></defs><path d="M448 938.666667a21.333333 21.333333 0 0 1-15.093333-6.246667L225.833333 725.333333H53.333333a53.393333 53.393333 0 0 1-53.333333-53.333333V352a53.393333 53.393333 0 0 1 53.333333-53.333333h172.5l207.08-207.086667A21.333333 21.333333 0 0 1 469.333333 106.666667v810.666666a21.333333 21.333333 0 0 1-21.333333 21.333334zM53.333333 341.333333a10.666667 10.666667 0 0 0-10.666666 10.666667v320a10.666667 10.666667 0 0 0 10.666666 10.666667h181.333334a21.333333 21.333333 0 0 1 15.086666 6.246666L426.666667 865.833333V158.166667L249.753333 335.086667A21.333333 21.333333 0 0 1 234.666667 341.333333z m750.48 586.553334a21.333333 21.333333 0 0 1-12.726666-38.466667 474.853333 474.853333 0 0 0 52.78-45.553333c182.993333-182.993333 182.993333-480.74 0-663.733334a474.246667 474.246667 0 0 0-52.78-45.553333 21.333333 21.333333 0 0 1 25.42-34.273333 518.346667 518.346667 0 0 1 57.533333 49.653333 511.606667 511.606667 0 0 1 0 724.08 519.026667 519.026667 0 0 1-57.54 49.653333 21.22 21.22 0 0 1-12.686667 4.193334z m-86.213333-149.333334a21.333333 21.333333 0 0 1-13.733333-37.666666c6.666667-5.586667 13.146667-11.553333 19.333333-17.726667C779.6 666.78 810.666667 591.78 810.666667 512s-31.066667-154.78-87.48-211.186667c-6.173333-6.173333-12.666667-12.14-19.333334-17.726666a21.333333 21.333333 0 1 1 27.446667-32.666667 346.585333 346.585333 0 0 1 22.046667 20.213333 341.066667 341.066667 0 0 1 0 482.72 346.585333 346.585333 0 0 1-22.046667 20.213334 21.24 21.24 0 0 1-13.7 5.013333zM629.333333 625.72a21.333333 21.333333 0 0 1-16.733333-34.546667 127.366667 127.366667 0 0 0 0-158.346666 21.333333 21.333333 0 0 1 33.486667-26.433334 170.733333 170.733333 0 0 1 0 211.213334A21.333333 21.333333 0 0 1 629.333333 625.72z" fill="#ffffff" p-id="9832"></path></svg>