<?xml version="1.0" standalone="no"?><!DOCTYPE svg PUBLIC "-//W3C//DTD SVG 1.1//EN" "http://www.w3.org/Graphics/SVG/1.1/DTD/svg11.dtd"><svg t="1659453311761" class="icon" viewBox="0 0 1024 1024" version="1.1" xmlns="http://www.w3.org/2000/svg" p-id="9357" xmlns:xlink="http://www.w3.org/1999/xlink" width="32" height="32"><defs><style type="text/css"></style></defs><path d="M885.333333 938.713333a53.58 53.58 0 0 0 53.333334-53.433333V138.72a53.333333 53.333333 0 0 0-80.886667-45.666667L239.133333 466.333333a53.333333 53.333333 0 0 0 0 91.333334l618.666667 373.28a53.16 53.16 0 0 0 27.533333 7.766666z m-0.046666-810.666666a10.98 10.98 0 0 1 5.333333 1.42 10.466667 10.466667 0 0 1 5.42 9.286666v746.526667a10.666667 10.666667 0 0 1-16.18 9.133333l-618.666667-373.28a10.666667 10.666667 0 0 1 0-18.266666l618.666667-373.28a10.386667 10.386667 0 0 1 5.406667-1.586667zM85.333333 917.333333V106.666667a21.333333 21.333333 0 0 1 42.666667 0v810.666666a21.333333 21.333333 0 0 1-42.666667 0z" fill="#ffffff" p-id="9358"></path></svg>